# xmcd
#
# Track frame offsets: 
#        300
#        20592
#        72193
#        91630
#        121778
#        159184
#
# Disc length: 2322 seconds
#
# Revision: 0
# Processed by: cddbd v1.5.2PL0 Copyright (c) Steve Scherf et al.
# Submitted via: ExactAudioCopy v0.95b4
#
DISCID=3b090e06
DTITLE=Johnny Winter And - Live
DYEAR=1971
DGENRE=Blues
TTITLE0=Good Morning Little School Girl
TTITLE1=It's My Own Fault
TTITLE2=Jumpin' Jack Flash
TTITLE3=Long Tall Sally - Whole Lotta Shakin' Goin' On
TTITLE4=Mean Town Blues
TTITLE5=Johnny B. Goode
EXTD=
EXTT0=
EXTT1=
EXTT2=
EXTT3=
EXTT4=
EXTT5=
PLAYORDER=
